<svg width="60" height="60" viewBox="0 0 60 60" fill="none" xmlns="http://www.w3.org/2000/svg">
<rect width="60" height="60" rx="30" fill="#E02428"/>
<path d="M18 45C17.175 45 16.4688 44.7063 15.8813 44.1188C15.2937 43.5313 15 42.825 15 42V24C15 23.175 15.2937 22.4688 15.8813 21.8813C16.4688 21.2938 17.175 21 18 21H24V18C24 17.175 24.2938 16.4688 24.8813 15.8813C25.4688 15.2937 26.175 15 27 15H33C33.825 15 34.5312 15.2937 35.1188 15.8813C35.7063 16.4688 36 17.175 36 18V21H42C42.825 21 43.5313 21.2938 44.1188 21.8813C44.7063 22.4688 45 23.175 45 24V42C45 42.825 44.7063 43.5313 44.1188 44.1188C43.5313 44.7063 42.825 45 42 45H18ZM18 42H42V24H18V42ZM27 21H33V18H27V21ZM28.5 34.5V39H31.5V34.5H36V31.5H31.5V27H28.5V31.5H24V34.5H28.5Z" fill="#E8EAED"/>
</svg>
